<svg xmlns="http://www.w3.org/2000/svg" xmlns:xlink="http://www.w3.org/1999/xlink" width="500" zoomAndPan="magnify" viewBox="0 0 375 374.999991" height="500" preserveAspectRatio="xMidYMid meet" version="1.0"><defs><g/><clipPath id="e8fb658eb4"><path d="M 29.066406 199.855469 L 350.742188 199.855469 L 350.742188 236.929688 L 29.066406 236.929688 Z M 29.066406 199.855469 " clip-rule="nonzero"/></clipPath><clipPath id="d0adeb2959"><path d="M 0.0664062 0.855469 L 321.742188 0.855469 L 321.742188 37.929688 L 0.0664062 37.929688 Z M 0.0664062 0.855469 " clip-rule="nonzero"/></clipPath><clipPath id="a5efa8ee2a"><rect x="0" width="322" y="0" height="38"/></clipPath></defs><rect x="-37.5" width="450" fill="#ffffff" y="-37.499999" height="449.999989" fill-opacity="1"/><rect x="-37.5" width="450" fill="#f4f4f4" y="-37.499999" height="449.999989" fill-opacity="1"/><g fill="#3b3937" fill-opacity="1"><g transform="translate(180.409797, 275.221256)"><g><path d="M 72.90625 1.8125 C 58.84375 1.8125 47.175781 -0.972656 37.90625 -6.546875 C 28.632812 -12.117188 21.722656 -19.90625 17.171875 -29.90625 C 12.628906 -39.90625 10.359375 -51.628906 10.359375 -65.078125 C 10.359375 -78.171875 12.597656 -89.71875 17.078125 -99.71875 C 21.566406 -109.71875 28.382812 -117.535156 37.53125 -123.171875 C 46.6875 -128.804688 58.234375 -131.625 72.171875 -131.625 C 85.628906 -131.625 95.992188 -129.773438 103.265625 -126.078125 C 110.535156 -122.378906 114.171875 -117.625 114.171875 -111.8125 C 114.171875 -107.6875 112.863281 -104.5625 110.25 -102.4375 C 107.644531 -100.320312 103.316406 -99.019531 97.265625 -98.53125 C 97.265625 -109.800781 95.289062 -117.828125 91.34375 -122.609375 C 87.40625 -127.398438 80.773438 -129.796875 71.453125 -129.796875 C 61.628906 -129.796875 53.71875 -127.644531 47.71875 -123.34375 C 41.71875 -119.039062 37.351562 -112.132812 34.625 -102.625 C 31.90625 -93.113281 30.546875 -80.597656 30.546875 -65.078125 C 30.546875 -49.441406 32.054688 -36.867188 35.078125 -27.359375 C 38.109375 -17.847656 42.957031 -10.910156 49.625 -6.546875 C 56.289062 -2.179688 65.019531 0 75.8125 0 C 79.320312 0 82.710938 -0.269531 85.984375 -0.8125 C 89.253906 -1.363281 92.164062 -2.003906 94.71875 -2.734375 L 94.71875 -45.8125 C 94.71875 -54.050781 89.75 -58.171875 79.8125 -58.171875 L 79.078125 -58.171875 L 79.078125 -60 L 126.34375 -60 L 126.34375 -58.171875 L 125.625 -58.171875 C 120.894531 -58.171875 117.617188 -57.078125 115.796875 -54.890625 C 113.984375 -52.710938 113.078125 -49.441406 113.078125 -45.078125 L 113.078125 -6.546875 C 107.015625 -3.753906 100.769531 -1.660156 94.34375 -0.265625 C 87.925781 1.117188 80.78125 1.8125 72.90625 1.8125 Z M 72.90625 1.8125 "/></g></g></g><g fill="#3b3937" fill-opacity="1"><g transform="translate(74.031511, 212.195153)"><g><path d="M 72.90625 1.8125 C 58.84375 1.8125 47.175781 -0.972656 37.90625 -6.546875 C 28.632812 -12.117188 21.722656 -19.90625 17.171875 -29.90625 C 12.628906 -39.90625 10.359375 -51.628906 10.359375 -65.078125 C 10.359375 -78.171875 12.597656 -89.71875 17.078125 -99.71875 C 21.566406 -109.71875 28.382812 -117.535156 37.53125 -123.171875 C 46.6875 -128.804688 58.234375 -131.625 72.171875 -131.625 C 85.628906 -131.625 95.992188 -129.773438 103.265625 -126.078125 C 110.535156 -122.378906 114.171875 -117.625 114.171875 -111.8125 C 114.171875 -107.6875 112.863281 -104.5625 110.25 -102.4375 C 107.644531 -100.320312 103.316406 -99.019531 97.265625 -98.53125 C 97.265625 -109.800781 95.289062 -117.828125 91.34375 -122.609375 C 87.40625 -127.398438 80.773438 -129.796875 71.453125 -129.796875 C 61.628906 -129.796875 53.71875 -127.644531 47.71875 -123.34375 C 41.71875 -119.039062 37.351562 -112.132812 34.625 -102.625 C 31.90625 -93.113281 30.546875 -80.597656 30.546875 -65.078125 C 30.546875 -49.441406 32.054688 -36.867188 35.078125 -27.359375 C 38.109375 -17.847656 42.957031 -10.910156 49.625 -6.546875 C 56.289062 -2.179688 65.019531 0 75.8125 0 C 79.320312 0 82.710938 -0.269531 85.984375 -0.8125 C 89.253906 -1.363281 92.164062 -2.003906 94.71875 -2.734375 L 94.71875 -45.8125 C 94.71875 -54.050781 89.75 -58.171875 79.8125 -58.171875 L 79.078125 -58.171875 L 79.078125 -60 L 126.34375 -60 L 126.34375 -58.171875 L 125.625 -58.171875 C 120.894531 -58.171875 117.617188 -57.078125 115.796875 -54.890625 C 113.984375 -52.710938 113.078125 -49.441406 113.078125 -45.078125 L 113.078125 -6.546875 C 107.015625 -3.753906 100.769531 -1.660156 94.34375 -0.265625 C 87.925781 1.117188 80.78125 1.8125 72.90625 1.8125 Z M 72.90625 1.8125 "/></g></g></g><g clip-path="url(#e8fb658eb4)"><g transform="matrix(1, 0, 0, 1, 29, 199)"><g clip-path="url(#a5efa8ee2a)"><g clip-path="url(#d0adeb2959)"><path fill="#f4f4f4" d="M 0.0664062 0.855469 L 321.703125 0.855469 L 321.703125 37.929688 L 0.0664062 37.929688 Z M 0.0664062 0.855469 " fill-opacity="1" fill-rule="nonzero"/></g></g></g></g><g fill="#967969" fill-opacity="1"><g transform="translate(65.616923, 225.491762)"><g><path d="M 13.265625 0.9375 C 12.929688 1.070312 12.59375 1.140625 12.25 1.140625 C 11.625 1.117188 11.050781 0.921875 10.53125 0.546875 C 10.175781 0.328125 9.898438 0.0351562 9.703125 -0.328125 C 9.515625 -0.691406 9.4375 -1.078125 9.46875 -1.484375 C 9.519531 -2.066406 9.773438 -2.664062 10.234375 -3.28125 C 10.703125 -3.90625 11.304688 -4.539062 12.046875 -5.1875 C 12.796875 -5.832031 13.617188 -6.457031 14.515625 -7.0625 C 15.421875 -7.675781 16.316406 -8.253906 17.203125 -8.796875 C 17.421875 -8.929688 17.5625 -9.113281 17.625 -9.34375 L 17.953125 -10.421875 C 18.015625 -10.648438 17.957031 -10.835938 17.78125 -10.984375 C 17.582031 -11.128906 17.382812 -11.144531 17.1875 -11.03125 C 16.519531 -10.625 15.753906 -10.203125 14.890625 -9.765625 C 14.035156 -9.335938 13.132812 -8.945312 12.1875 -8.59375 C 11.238281 -8.238281 10.265625 -7.96875 9.265625 -7.78125 C 8.273438 -7.601562 7.304688 -7.5625 6.359375 -7.65625 C 5.410156 -7.757812 4.519531 -8.039062 3.6875 -8.5 C 2.78125 -9.019531 2.117188 -9.765625 1.703125 -10.734375 C 1.296875 -11.710938 1.160156 -12.863281 1.296875 -14.1875 C 1.410156 -15.3125 1.707031 -16.484375 2.1875 -17.703125 C 2.664062 -18.929688 3.300781 -20.148438 4.09375 -21.359375 C 4.882812 -22.578125 5.8125 -23.726562 6.875 -24.8125 C 7.945312 -25.894531 9.125 -26.859375 10.40625 -27.703125 C 11.6875 -28.546875 13.046875 -29.207031 14.484375 -29.6875 C 16.265625 -30.257812 17.800781 -30.347656 19.09375 -29.953125 C 20.382812 -29.554688 21.269531 -28.722656 21.75 -27.453125 C 22.0625 -26.617188 22.175781 -25.703125 22.09375 -24.703125 C 22.007812 -23.703125 21.742188 -22.671875 21.296875 -21.609375 C 20.847656 -20.546875 20.234375 -19.503906 19.453125 -18.484375 C 18.671875 -17.472656 17.726562 -16.523438 16.625 -15.640625 C 15.53125 -14.765625 14.28125 -14.023438 12.875 -13.421875 C 12.707031 -13.347656 12.539062 -13.34375 12.375 -13.40625 C 12.207031 -13.476562 12.09375 -13.597656 12.03125 -13.765625 C 11.945312 -13.929688 11.9375 -14.09375 12 -14.25 C 12.0625 -14.414062 12.175781 -14.535156 12.34375 -14.609375 C 14.03125 -15.347656 15.460938 -16.253906 16.640625 -17.328125 C 17.816406 -18.398438 18.742188 -19.535156 19.421875 -20.734375 C 20.097656 -21.941406 20.523438 -23.09375 20.703125 -24.1875 C 20.890625 -25.289062 20.832031 -26.222656 20.53125 -26.984375 C 20.164062 -27.921875 19.5 -28.515625 18.53125 -28.765625 C 17.5625 -29.015625 16.351562 -28.90625 14.90625 -28.4375 C 13.550781 -27.988281 12.273438 -27.375 11.078125 -26.59375 C 9.890625 -25.8125 8.800781 -24.921875 7.8125 -23.921875 C 6.820312 -22.921875 5.953125 -21.851562 5.203125 -20.71875 C 4.460938 -19.582031 3.863281 -18.445312 3.40625 -17.3125 C 2.957031 -16.1875 2.679688 -15.101562 2.578125 -14.0625 C 2.523438 -13.5625 2.523438 -13.03125 2.578125 -12.46875 C 2.640625 -11.90625 2.800781 -11.367188 3.0625 -10.859375 C 3.332031 -10.359375 3.757812 -9.953125 4.34375 -9.640625 C 5.070312 -9.210938 5.875 -8.972656 6.75 -8.921875 C 7.632812 -8.878906 8.539062 -8.957031 9.46875 -9.15625 C 10.394531 -9.351562 11.304688 -9.628906 12.203125 -9.984375 C 13.109375 -10.347656 13.960938 -10.738281 14.765625 -11.15625 C 15.566406 -11.582031 16.269531 -11.984375 16.875 -12.359375 C 17.488281 -12.742188 17.972656 -13.066406 18.328125 -13.328125 C 18.691406 -13.585938 18.878906 -13.722656 18.890625 -13.734375 C 19.128906 -13.921875 19.378906 -13.929688 19.640625 -13.765625 C 19.890625 -13.597656 19.976562 -13.363281 19.90625 -13.0625 C 19.894531 -12.945312 19.851562 -12.738281 19.78125 -12.4375 C 19.71875 -12.144531 19.640625 -11.785156 19.546875 -11.359375 C 19.472656 -11.085938 19.546875 -10.863281 19.765625 -10.6875 C 19.972656 -10.519531 20.195312 -10.503906 20.4375 -10.640625 C 21.09375 -10.984375 21.648438 -11.269531 22.109375 -11.5 C 22.578125 -11.738281 22.894531 -11.898438 23.0625 -11.984375 C 23.226562 -12.054688 23.394531 -12.0625 23.5625 -12 C 23.726562 -11.9375 23.847656 -11.828125 23.921875 -11.671875 C 24.003906 -11.515625 24.015625 -11.347656 23.953125 -11.171875 C 23.890625 -10.992188 23.78125 -10.875 23.625 -10.8125 C 22.988281 -10.5 22.304688 -10.148438 21.578125 -9.765625 C 20.859375 -9.390625 20.140625 -8.992188 19.421875 -8.578125 C 18.898438 -8.285156 18.550781 -7.859375 18.375 -7.296875 C 18.070312 -6.410156 17.742188 -5.53125 17.390625 -4.65625 C 17.035156 -3.78125 16.644531 -2.960938 16.21875 -2.203125 C 15.789062 -1.441406 15.328125 -0.785156 14.828125 -0.234375 C 14.328125 0.316406 13.804688 0.707031 13.265625 0.9375 Z M 16.234375 -5.3125 L 16.234375 -5.28125 C 16.359375 -5.582031 16.296875 -5.820312 16.046875 -6 C 15.816406 -6.195312 15.566406 -6.207031 15.296875 -6.03125 C 14.472656 -5.46875 13.722656 -4.90625 13.046875 -4.34375 C 12.367188 -3.78125 11.832031 -3.242188 11.4375 -2.734375 C 11.039062 -2.234375 10.820312 -1.785156 10.78125 -1.390625 C 10.769531 -1.273438 10.785156 -1.140625 10.828125 -0.984375 C 10.878906 -0.835938 11.03125 -0.679688 11.28125 -0.515625 C 11.726562 -0.140625 12.222656 -0.0546875 12.765625 -0.265625 C 13.410156 -0.535156 14.023438 -1.132812 14.609375 -2.0625 C 15.203125 -3 15.742188 -4.082031 16.234375 -5.3125 Z M 16.234375 -5.3125 "/></g></g></g><g fill="#967969" fill-opacity="1"><g transform="translate(87.10571, 225.491762)"><g><path d="M 20.734375 -6.03125 C 20.847656 -5.894531 20.90625 -5.734375 20.90625 -5.546875 C 20.882812 -5.367188 20.8125 -5.222656 20.6875 -5.109375 C 20.632812 -5.054688 20.390625 -4.847656 19.953125 -4.484375 C 19.515625 -4.117188 18.9375 -3.6875 18.21875 -3.1875 C 17.5 -2.695312 16.6875 -2.21875 15.78125 -1.75 C 14.882812 -1.28125 13.9375 -0.90625 12.9375 -0.625 C 11.9375 -0.34375 10.9375 -0.234375 9.9375 -0.296875 C 8.9375 -0.359375 7.976562 -0.691406 7.0625 -1.296875 C 6.375 -1.734375 5.820312 -2.3125 5.40625 -3.03125 C 5.289062 -3.226562 5.109375 -3.332031 4.859375 -3.34375 C 4.628906 -3.363281 4.445312 -3.273438 4.3125 -3.078125 C 3.945312 -2.523438 3.550781 -2.003906 3.125 -1.515625 C 2.695312 -1.035156 2.257812 -0.644531 1.8125 -0.34375 C 1.363281 -0.0507812 0.929688 0.101562 0.515625 0.125 L 0.5 0.125 C 0.195312 0.101562 -0.078125 0.0078125 -0.328125 -0.15625 C -0.585938 -0.332031 -0.773438 -0.5625 -0.890625 -0.84375 C -1.390625 -2.082031 -1.316406 -3.289062 -0.671875 -4.46875 C -0.117188 -5.601562 0.644531 -6.570312 1.625 -7.375 C 2.601562 -8.175781 3.710938 -8.726562 4.953125 -9.03125 C 5.203125 -9.09375 5.410156 -9.035156 5.578125 -8.859375 C 5.765625 -8.671875 5.820312 -8.453125 5.75 -8.203125 C 5.664062 -7.972656 5.5 -7.828125 5.25 -7.765625 C 4.207031 -7.515625 3.273438 -7.050781 2.453125 -6.375 C 1.628906 -5.707031 0.984375 -4.890625 0.515625 -3.921875 C 0.0546875 -3.128906 -0.0234375 -2.300781 0.265625 -1.4375 C 0.367188 -1.269531 0.445312 -1.1875 0.5 -1.1875 C 0.644531 -1.09375 0.863281 -1.195312 1.15625 -1.5 C 1.457031 -1.800781 1.796875 -2.234375 2.171875 -2.796875 C 2.554688 -3.359375 2.9375 -3.976562 3.3125 -4.65625 C 3.6875 -5.332031 4.019531 -5.992188 4.3125 -6.640625 C 4.445312 -6.941406 4.679688 -7.066406 5.015625 -7.015625 C 5.328125 -6.960938 5.503906 -6.78125 5.546875 -6.46875 C 5.546875 -6.457031 5.578125 -6.296875 5.640625 -5.984375 C 5.710938 -5.679688 5.832031 -5.304688 6 -4.859375 C 6.164062 -4.410156 6.390625 -3.957031 6.671875 -3.5 C 6.960938 -3.050781 7.332031 -2.675781 7.78125 -2.375 C 8.539062 -1.863281 9.363281 -1.59375 10.25 -1.5625 C 11.132812 -1.539062 12.023438 -1.675781 12.921875 -1.96875 C 13.816406 -2.257812 14.671875 -2.625 15.484375 -3.0625 C 16.304688 -3.5 17.035156 -3.945312 17.671875 -4.40625 C 18.316406 -4.875 18.828125 -5.265625 19.203125 -5.578125 C 19.585938 -5.890625 19.789062 -6.054688 19.8125 -6.078125 C 19.945312 -6.191406 20.101562 -6.242188 20.28125 -6.234375 C 20.46875 -6.222656 20.617188 -6.15625 20.734375 -6.03125 Z M 20.734375 -6.03125 "/></g></g></g><g fill="#967969" fill-opacity="1"><g transform="translate(107.132171, 225.491762)"><g><path d="M 17.03125 -6.75 C 17.164062 -6.632812 17.234375 -6.484375 17.234375 -6.296875 C 17.234375 -6.117188 17.164062 -5.960938 17.03125 -5.828125 C 16.988281 -5.773438 16.75 -5.546875 16.3125 -5.140625 C 15.882812 -4.734375 15.316406 -4.242188 14.609375 -3.671875 C 13.898438 -3.109375 13.09375 -2.550781 12.1875 -2 C 11.289062 -1.445312 10.347656 -0.976562 9.359375 -0.59375 C 8.378906 -0.21875 7.390625 -0.03125 6.390625 -0.03125 C 5.710938 -0.03125 5.046875 -0.148438 4.390625 -0.390625 C 2.898438 -0.953125 1.800781 -2.203125 1.09375 -4.140625 C 0.382812 -6.078125 0.117188 -8.523438 0.296875 -11.484375 C 0.273438 -11.609375 0.21875 -11.710938 0.125 -11.796875 C 0.0195312 -11.878906 -0.09375 -11.914062 -0.21875 -11.90625 C -1.476562 -11.800781 -2.617188 -11.710938 -3.640625 -11.640625 C -4.671875 -11.566406 -5.488281 -11.507812 -6.09375 -11.46875 C -6.707031 -11.425781 -7.03125 -11.40625 -7.0625 -11.40625 L -7.109375 -11.40625 C -7.296875 -11.382812 -7.453125 -11.4375 -7.578125 -11.5625 C -7.710938 -11.6875 -7.78125 -11.84375 -7.78125 -12.03125 C -7.78125 -12.207031 -7.722656 -12.363281 -7.609375 -12.5 C -7.492188 -12.632812 -7.347656 -12.703125 -7.171875 -12.703125 C -7.128906 -12.703125 -6.785156 -12.722656 -6.140625 -12.765625 C -5.503906 -12.816406 -4.644531 -12.882812 -3.5625 -12.96875 C -2.488281 -13.050781 -1.300781 -13.132812 0 -13.21875 C 0.144531 -13.226562 0.265625 -13.300781 0.359375 -13.4375 C 0.453125 -13.570312 0.515625 -13.726562 0.546875 -13.90625 C 0.691406 -14.882812 0.882812 -15.878906 1.125 -16.890625 C 1.363281 -17.910156 1.640625 -18.859375 1.953125 -19.734375 C 2.273438 -20.609375 2.632812 -21.332031 3.03125 -21.90625 C 3.425781 -22.476562 3.847656 -22.8125 4.296875 -22.90625 C 4.472656 -22.945312 4.710938 -22.921875 5.015625 -22.828125 C 5.328125 -22.734375 5.609375 -22.429688 5.859375 -21.921875 C 6.035156 -21.578125 6.070312 -20.992188 5.96875 -20.171875 C 5.875 -19.347656 5.675781 -18.398438 5.375 -17.328125 C 5.082031 -16.253906 4.738281 -15.148438 4.34375 -14.015625 C 4.257812 -13.796875 4.253906 -13.65625 4.328125 -13.59375 C 4.398438 -13.539062 4.460938 -13.515625 4.515625 -13.515625 C 6.117188 -13.609375 7.644531 -13.6875 9.09375 -13.75 C 10.539062 -13.820312 11.742188 -13.859375 12.703125 -13.859375 C 12.878906 -13.859375 13.03125 -13.789062 13.15625 -13.65625 C 13.28125 -13.53125 13.34375 -13.382812 13.34375 -13.21875 C 13.34375 -13.03125 13.28125 -12.867188 13.15625 -12.734375 C 13.03125 -12.609375 12.878906 -12.546875 12.703125 -12.546875 C 11.703125 -12.546875 10.429688 -12.515625 8.890625 -12.453125 C 7.347656 -12.398438 5.738281 -12.304688 4.0625 -12.171875 C 3.914062 -12.171875 3.8125 -12.15625 3.75 -12.125 C 3.695312 -12.09375 3.644531 -12.019531 3.59375 -11.90625 C 3.25 -10.875 2.90625 -9.925781 2.5625 -9.0625 C 2.226562 -8.195312 1.953125 -7.5 1.734375 -6.96875 C 1.835938 -6.1875 2.007812 -5.4375 2.25 -4.71875 C 2.488281 -4 2.816406 -3.363281 3.234375 -2.8125 C 3.660156 -2.257812 4.203125 -1.859375 4.859375 -1.609375 C 5.597656 -1.328125 6.390625 -1.253906 7.234375 -1.390625 C 8.078125 -1.523438 8.914062 -1.785156 9.75 -2.171875 C 10.59375 -2.554688 11.390625 -3 12.140625 -3.5 C 12.890625 -4.007812 13.5625 -4.507812 14.15625 -5 C 14.75 -5.5 15.21875 -5.910156 15.5625 -6.234375 C 15.914062 -6.554688 16.101562 -6.726562 16.125 -6.75 C 16.238281 -6.875 16.382812 -6.9375 16.5625 -6.9375 C 16.75 -6.9375 16.90625 -6.875 17.03125 -6.75 Z M 1.859375 -13.9375 C 1.835938 -13.832031 1.828125 -13.707031 1.828125 -13.5625 C 1.828125 -13.425781 1.894531 -13.359375 2.03125 -13.359375 C 2.164062 -13.359375 2.300781 -13.367188 2.4375 -13.390625 C 2.675781 -13.410156 2.820312 -13.550781 2.875 -13.8125 C 3.300781 -15.050781 3.664062 -16.203125 3.96875 -17.265625 C 4.28125 -18.335938 4.5 -19.226562 4.625 -19.9375 C 4.757812 -20.644531 4.78125 -21.109375 4.6875 -21.328125 C 4.65625 -21.421875 4.585938 -21.488281 4.484375 -21.53125 C 4.390625 -21.539062 4.304688 -21.515625 4.234375 -21.453125 C 4.003906 -21.203125 3.738281 -20.71875 3.4375 -20 C 3.144531 -19.289062 2.851562 -18.414062 2.5625 -17.375 C 2.269531 -16.34375 2.035156 -15.195312 1.859375 -13.9375 Z M 1.53125 -10.0625 C 1.601562 -10.0625 1.691406 -10.148438 1.796875 -10.328125 C 1.898438 -10.515625 2 -10.734375 2.09375 -10.984375 C 2.1875 -11.234375 2.253906 -11.460938 2.296875 -11.671875 C 2.335938 -11.890625 2.332031 -12.023438 2.28125 -12.078125 C 2.050781 -12.191406 1.835938 -12.175781 1.640625 -12.03125 C 1.566406 -11.957031 1.515625 -11.816406 1.484375 -11.609375 C 1.453125 -11.410156 1.425781 -11.191406 1.40625 -10.953125 C 1.394531 -10.710938 1.398438 -10.503906 1.421875 -10.328125 C 1.453125 -10.148438 1.488281 -10.0625 1.53125 -10.0625 Z M 1.53125 -10.0625 "/></g></g></g><g fill="#967969" fill-opacity="1"><g transform="translate(122.969923, 225.491762)"><g><path d="M 19.5625 -5.953125 C 19.675781 -5.816406 19.726562 -5.65625 19.71875 -5.46875 C 19.71875 -5.289062 19.648438 -5.144531 19.515625 -5.03125 C 19.460938 -4.976562 19.226562 -4.785156 18.8125 -4.453125 C 18.40625 -4.128906 17.859375 -3.734375 17.171875 -3.265625 C 16.484375 -2.804688 15.71875 -2.363281 14.875 -1.9375 C 14.03125 -1.507812 13.148438 -1.175781 12.234375 -0.9375 C 11.316406 -0.707031 10.429688 -0.660156 9.578125 -0.796875 C 8.816406 -0.921875 8.117188 -1.203125 7.484375 -1.640625 C 6.859375 -2.085938 6.363281 -2.640625 6 -3.296875 C 5.71875 -3.804688 5.296875 -4.085938 4.734375 -4.140625 C 4.503906 -4.160156 4.171875 -4.082031 3.734375 -3.90625 C 3.296875 -3.726562 2.753906 -3.34375 2.109375 -2.75 C 1.460938 -2.15625 0.71875 -1.25 -0.125 -0.03125 C -0.300781 0.238281 -0.550781 0.316406 -0.875 0.203125 C -1.1875 0.0859375 -1.328125 -0.132812 -1.296875 -0.46875 C -1.242188 -1.09375 -1.148438 -1.816406 -1.015625 -2.640625 C -0.878906 -3.472656 -0.722656 -4.351562 -0.546875 -5.28125 C -0.710938 -5.53125 -0.703125 -5.78125 -0.515625 -6.03125 L -0.34375 -6.28125 C -0.144531 -7.28125 0.078125 -8.304688 0.328125 -9.359375 C 0.585938 -10.421875 0.867188 -11.453125 1.171875 -12.453125 C 1.628906 -14.117188 2.054688 -15.488281 2.453125 -16.5625 C 2.847656 -17.632812 3.210938 -18.488281 3.546875 -19.125 C 3.878906 -19.757812 4.171875 -20.226562 4.421875 -20.53125 C 4.679688 -20.84375 4.894531 -21.046875 5.0625 -21.140625 C 5.238281 -21.242188 5.378906 -21.3125 5.484375 -21.34375 C 5.765625 -21.425781 6.035156 -21.421875 6.296875 -21.328125 C 6.554688 -21.242188 6.78125 -21.085938 6.96875 -20.859375 C 7.363281 -20.378906 7.546875 -19.742188 7.515625 -18.953125 C 7.492188 -18.171875 7.3125 -17.300781 6.96875 -16.34375 C 6.632812 -15.382812 6.207031 -14.394531 5.6875 -13.375 C 5.164062 -12.363281 4.613281 -11.378906 4.03125 -10.421875 C 3.445312 -9.472656 2.882812 -8.601562 2.34375 -7.8125 C 1.800781 -7.03125 1.359375 -6.398438 1.015625 -5.921875 C 0.992188 -5.921875 0.953125 -5.863281 0.890625 -5.75 C 0.835938 -5.632812 0.8125 -5.59375 0.8125 -5.625 C 0.800781 -5.476562 0.765625 -5.269531 0.703125 -5 C 0.648438 -4.726562 0.597656 -4.453125 0.546875 -4.171875 C 0.492188 -3.898438 0.453125 -3.679688 0.421875 -3.515625 C 0.398438 -3.398438 0.453125 -3.316406 0.578125 -3.265625 C 0.671875 -3.222656 0.757812 -3.242188 0.84375 -3.328125 C 2.28125 -4.828125 3.609375 -5.53125 4.828125 -5.4375 C 5.859375 -5.351562 6.617188 -4.851562 7.109375 -3.9375 C 7.691406 -2.882812 8.578125 -2.265625 9.765625 -2.078125 C 10.515625 -1.960938 11.296875 -2.019531 12.109375 -2.25 C 12.929688 -2.488281 13.722656 -2.804688 14.484375 -3.203125 C 15.253906 -3.597656 15.945312 -4.007812 16.5625 -4.4375 C 17.1875 -4.863281 17.6875 -5.222656 18.0625 -5.515625 C 18.445312 -5.816406 18.640625 -5.976562 18.640625 -6 C 18.773438 -6.113281 18.929688 -6.164062 19.109375 -6.15625 C 19.296875 -6.15625 19.445312 -6.085938 19.5625 -5.953125 Z M 5.859375 -20.109375 C 5.703125 -20.109375 5.503906 -19.914062 5.265625 -19.53125 C 5.023438 -19.15625 4.753906 -18.648438 4.453125 -18.015625 C 4.160156 -17.378906 3.859375 -16.675781 3.546875 -15.90625 C 3.242188 -15.132812 2.960938 -14.359375 2.703125 -13.578125 C 2.441406 -12.804688 2.210938 -12.085938 2.015625 -11.421875 C 1.816406 -10.765625 1.675781 -10.222656 1.59375 -9.796875 C 1.519531 -9.378906 1.523438 -9.144531 1.609375 -9.09375 C 1.691406 -9.050781 1.851562 -9.191406 2.09375 -9.515625 C 2.332031 -9.835938 2.613281 -10.285156 2.9375 -10.859375 C 3.257812 -11.441406 3.597656 -12.09375 3.953125 -12.8125 C 4.304688 -13.539062 4.632812 -14.285156 4.9375 -15.046875 C 5.25 -15.804688 5.507812 -16.53125 5.71875 -17.21875 C 5.9375 -17.90625 6.070312 -18.492188 6.125 -18.984375 C 6.1875 -19.484375 6.128906 -19.832031 5.953125 -20.03125 C 5.929688 -20.050781 5.914062 -20.066406 5.90625 -20.078125 C 5.90625 -20.097656 5.890625 -20.109375 5.859375 -20.109375 Z M 5.859375 -20.109375 "/></g></g></g><g fill="#967969" fill-opacity="1"><g transform="translate(141.70755, 225.491762)"><g><path d="M 20.796875 -6.375 C 20.921875 -6.238281 20.972656 -6.082031 20.953125 -5.90625 C 20.929688 -5.71875 20.847656 -5.566406 20.703125 -5.453125 C 20.640625 -5.398438 20.34375 -5.179688 19.8125 -4.796875 C 19.28125 -4.410156 18.566406 -3.945312 17.671875 -3.40625 C 16.785156 -2.875 15.753906 -2.34375 14.578125 -1.8125 C 13.398438 -1.28125 12.140625 -0.835938 10.796875 -0.484375 C 9.460938 -0.140625 8.085938 0.03125 6.671875 0.03125 C 4.984375 0.0390625 3.363281 -0.265625 1.8125 -0.890625 C 0.945312 -1.234375 0.34375 -1.632812 0 -2.09375 C -0.34375 -2.5625 -0.539062 -3.019531 -0.59375 -3.46875 C -0.644531 -3.914062 -0.640625 -4.296875 -0.578125 -4.609375 C -0.421875 -5.222656 -0.128906 -5.8125 0.296875 -6.375 C 0.722656 -6.945312 1.222656 -7.460938 1.796875 -7.921875 C 2.378906 -8.378906 2.972656 -8.726562 3.578125 -8.96875 C 4.179688 -9.21875 4.734375 -9.328125 5.234375 -9.296875 C 5.679688 -9.296875 6.066406 -9.140625 6.390625 -8.828125 C 6.710938 -8.515625 6.890625 -8.125 6.921875 -7.65625 C 6.929688 -7.394531 6.863281 -7.066406 6.71875 -6.671875 C 6.570312 -6.285156 6.191406 -5.894531 5.578125 -5.5 C 4.171875 -4.625 2.632812 -4.238281 0.96875 -4.34375 C 0.882812 -4.351562 0.8125 -4.335938 0.75 -4.296875 C 0.675781 -4.242188 0.648438 -4.175781 0.671875 -4.09375 C 0.648438 -3.945312 0.664062 -3.753906 0.71875 -3.515625 C 0.769531 -3.285156 0.910156 -3.046875 1.140625 -2.796875 C 1.367188 -2.554688 1.757812 -2.328125 2.3125 -2.109375 C 3.4375 -1.628906 4.585938 -1.351562 5.765625 -1.28125 C 6.941406 -1.21875 8.097656 -1.289062 9.234375 -1.5 C 10.378906 -1.71875 11.476562 -2.019531 12.53125 -2.40625 C 13.582031 -2.800781 14.550781 -3.226562 15.4375 -3.6875 C 16.320312 -4.15625 17.09375 -4.59375 17.75 -5 C 18.414062 -5.414062 18.9375 -5.765625 19.3125 -6.046875 C 19.695312 -6.328125 19.890625 -6.46875 19.890625 -6.46875 C 20.035156 -6.582031 20.203125 -6.632812 20.390625 -6.625 C 20.546875 -6.601562 20.679688 -6.519531 20.796875 -6.375 Z M 1.53125 -5.859375 C 1.351562 -5.609375 1.375 -5.46875 1.59375 -5.4375 C 1.820312 -5.414062 2.140625 -5.46875 2.546875 -5.59375 C 2.960938 -5.71875 3.390625 -5.875 3.828125 -6.0625 C 4.265625 -6.25 4.617188 -6.425781 4.890625 -6.59375 C 5.398438 -6.9375 5.640625 -7.25 5.609375 -7.53125 C 5.585938 -7.71875 5.539062 -7.835938 5.46875 -7.890625 C 5.394531 -7.953125 5.289062 -7.992188 5.15625 -8.015625 C 4.625 -8.046875 4.007812 -7.859375 3.3125 -7.453125 C 2.625 -7.046875 2.03125 -6.515625 1.53125 -5.859375 Z M 1.53125 -5.859375 "/></g></g></g><g fill="#967969" fill-opacity="1"><g transform="translate(161.560508, 225.491762)"><g><path d="M 21.40625 -6.515625 C 21.519531 -6.390625 21.578125 -6.242188 21.578125 -6.078125 C 21.578125 -5.890625 21.507812 -5.734375 21.375 -5.609375 C 20.507812 -4.765625 19.546875 -4.039062 18.484375 -3.4375 C 17.429688 -2.832031 16.335938 -2.332031 15.203125 -1.9375 C 14.078125 -1.539062 12.976562 -1.242188 11.90625 -1.046875 C 10.84375 -0.859375 9.875 -0.765625 9 -0.765625 C 8.0625 -0.710938 7.15625 -0.890625 6.28125 -1.296875 C 5.675781 -1.640625 5.269531 -2.015625 5.0625 -2.421875 C 4.863281 -2.835938 4.78125 -3.265625 4.8125 -3.703125 C 4.84375 -4.140625 4.9375 -4.550781 5.09375 -4.9375 C 5.25 -5.332031 5.398438 -5.671875 5.546875 -5.953125 C 5.585938 -6.015625 5.570312 -6.0625 5.5 -6.09375 C 5.4375 -6.132812 5.320312 -6.113281 5.15625 -6.03125 C 4.25 -5.53125 3.273438 -5.304688 2.234375 -5.359375 C 1.765625 -5.335938 1.3125 -5.425781 0.875 -5.625 C 0.707031 -5.570312 0.539062 -5.585938 0.375 -5.671875 C 0.101562 -5.804688 -0.0078125 -6.023438 0.03125 -6.328125 C -0.21875 -6.617188 -0.394531 -6.957031 -0.5 -7.34375 C -0.695312 -8.019531 -0.675781 -8.6875 -0.4375 -9.34375 C -0.207031 -10.007812 0.191406 -10.554688 0.765625 -10.984375 C 1.460938 -11.398438 2.007812 -11.414062 2.40625 -11.03125 C 2.457031 -10.976562 2.519531 -10.890625 2.59375 -10.765625 C 2.664062 -10.648438 2.707031 -10.457031 2.71875 -10.1875 C 2.738281 -9.925781 2.6875 -9.554688 2.5625 -9.078125 C 2.4375 -8.597656 2.203125 -7.96875 1.859375 -7.1875 C 1.828125 -7.125 1.851562 -7.015625 1.9375 -6.859375 C 2.019531 -6.710938 2.117188 -6.640625 2.234375 -6.640625 C 3.191406 -6.640625 4.09375 -6.878906 4.9375 -7.359375 C 5.21875 -7.515625 5.515625 -7.640625 5.828125 -7.734375 C 6.140625 -7.835938 6.46875 -7.753906 6.8125 -7.484375 C 7.164062 -7.222656 7.285156 -6.894531 7.171875 -6.5 C 7.054688 -6.113281 6.90625 -5.738281 6.71875 -5.375 C 6.34375 -4.601562 6.144531 -4 6.125 -3.5625 C 6.101562 -3.125 6.375 -2.738281 6.9375 -2.40625 C 7.257812 -2.21875 7.796875 -2.101562 8.546875 -2.0625 C 9.296875 -2.03125 10.171875 -2.09375 11.171875 -2.25 C 12.171875 -2.40625 13.222656 -2.660156 14.328125 -3.015625 C 15.441406 -3.367188 16.523438 -3.832031 17.578125 -4.40625 C 18.640625 -4.988281 19.597656 -5.703125 20.453125 -6.546875 C 20.585938 -6.660156 20.742188 -6.71875 20.921875 -6.71875 C 21.109375 -6.71875 21.269531 -6.648438 21.40625 -6.515625 Z M 0.71875 -7.890625 C 1.019531 -8.515625 1.25 -9.164062 1.40625 -9.84375 C 0.800781 -9.3125 0.570312 -8.660156 0.71875 -7.890625 Z M 0.71875 -7.890625 "/></g></g></g><g fill="#967969" fill-opacity="1"><g transform="translate(181.88439, 225.491762)"><g/></g></g><g fill="#967969" fill-opacity="1"><g transform="translate(191.104494, 225.491762)"><g><path d="M 20.734375 -6.03125 C 20.847656 -5.894531 20.90625 -5.734375 20.90625 -5.546875 C 20.882812 -5.367188 20.8125 -5.222656 20.6875 -5.109375 C 20.632812 -5.054688 20.390625 -4.847656 19.953125 -4.484375 C 19.515625 -4.117188 18.9375 -3.6875 18.21875 -3.1875 C 17.5 -2.695312 16.6875 -2.21875 15.78125 -1.75 C 14.882812 -1.28125 13.9375 -0.90625 12.9375 -0.625 C 11.9375 -0.34375 10.9375 -0.234375 9.9375 -0.296875 C 8.9375 -0.359375 7.976562 -0.691406 7.0625 -1.296875 C 6.375 -1.734375 5.820312 -2.3125 5.40625 -3.03125 C 5.289062 -3.226562 5.109375 -3.332031 4.859375 -3.34375 C 4.628906 -3.363281 4.445312 -3.273438 4.3125 -3.078125 C 3.945312 -2.523438 3.550781 -2.003906 3.125 -1.515625 C 2.695312 -1.035156 2.257812 -0.644531 1.8125 -0.34375 C 1.363281 -0.0507812 0.929688 0.101562 0.515625 0.125 L 0.5 0.125 C 0.195312 0.101562 -0.078125 0.0078125 -0.328125 -0.15625 C -0.585938 -0.332031 -0.773438 -0.5625 -0.890625 -0.84375 C -1.390625 -2.082031 -1.316406 -3.289062 -0.671875 -4.46875 C -0.117188 -5.601562 0.644531 -6.570312 1.625 -7.375 C 2.601562 -8.175781 3.710938 -8.726562 4.953125 -9.03125 C 5.203125 -9.09375 5.410156 -9.035156 5.578125 -8.859375 C 5.765625 -8.671875 5.820312 -8.453125 5.75 -8.203125 C 5.664062 -7.972656 5.5 -7.828125 5.25 -7.765625 C 4.207031 -7.515625 3.273438 -7.050781 2.453125 -6.375 C 1.628906 -5.707031 0.984375 -4.890625 0.515625 -3.921875 C 0.0546875 -3.128906 -0.0234375 -2.300781 0.265625 -1.4375 C 0.367188 -1.269531 0.445312 -1.1875 0.5 -1.1875 C 0.644531 -1.09375 0.863281 -1.195312 1.15625 -1.5 C 1.457031 -1.800781 1.796875 -2.234375 2.171875 -2.796875 C 2.554688 -3.359375 2.9375 -3.976562 3.3125 -4.65625 C 3.6875 -5.332031 4.019531 -5.992188 4.3125 -6.640625 C 4.445312 -6.941406 4.679688 -7.066406 5.015625 -7.015625 C 5.328125 -6.960938 5.503906 -6.78125 5.546875 -6.46875 C 5.546875 -6.457031 5.578125 -6.296875 5.640625 -5.984375 C 5.710938 -5.679688 5.832031 -5.304688 6 -4.859375 C 6.164062 -4.410156 6.390625 -3.957031 6.671875 -3.5 C 6.960938 -3.050781 7.332031 -2.675781 7.78125 -2.375 C 8.539062 -1.863281 9.363281 -1.59375 10.25 -1.5625 C 11.132812 -1.539062 12.023438 -1.675781 12.921875 -1.96875 C 13.816406 -2.257812 14.671875 -2.625 15.484375 -3.0625 C 16.304688 -3.5 17.035156 -3.945312 17.671875 -4.40625 C 18.316406 -4.875 18.828125 -5.265625 19.203125 -5.578125 C 19.585938 -5.890625 19.789062 -6.054688 19.8125 -6.078125 C 19.945312 -6.191406 20.101562 -6.242188 20.28125 -6.234375 C 20.46875 -6.222656 20.617188 -6.15625 20.734375 -6.03125 Z M 20.734375 -6.03125 "/></g></g></g><g fill="#967969" fill-opacity="1"><g transform="translate(211.130955, 225.491762)"><g><path d="M 21.671875 -6.171875 C 21.804688 -6.054688 21.875 -5.90625 21.875 -5.71875 C 21.882812 -5.539062 21.828125 -5.382812 21.703125 -5.25 C 21.660156 -5.207031 21.472656 -5.023438 21.140625 -4.703125 C 20.816406 -4.378906 20.375 -3.988281 19.8125 -3.53125 C 19.25 -3.082031 18.59375 -2.628906 17.84375 -2.171875 C 17.101562 -1.710938 16.300781 -1.328125 15.4375 -1.015625 C 14.582031 -0.703125 13.695312 -0.519531 12.78125 -0.46875 C 11.863281 -0.414062 10.941406 -0.582031 10.015625 -0.96875 C 8.722656 -1.613281 7.722656 -2.5625 7.015625 -3.8125 C 6.921875 -3.945312 6.78125 -4.15625 6.59375 -4.4375 C 6.414062 -4.71875 6.171875 -4.847656 5.859375 -4.828125 C 5.703125 -4.828125 5.476562 -4.78125 5.1875 -4.6875 C 4.90625 -4.601562 4.535156 -4.425781 4.078125 -4.15625 C 3.617188 -3.882812 3.078125 -3.457031 2.453125 -2.875 C 1.828125 -2.300781 1.09375 -1.523438 0.25 -0.546875 C 0.03125 -0.296875 -0.234375 -0.242188 -0.546875 -0.390625 C -0.835938 -0.546875 -0.945312 -0.785156 -0.875 -1.109375 L 0.375 -6.578125 C 0.40625 -6.734375 0.5 -6.859375 0.65625 -6.953125 C 0.8125 -7.054688 0.972656 -7.085938 1.140625 -7.046875 C 1.316406 -7.015625 1.453125 -6.914062 1.546875 -6.75 C 1.640625 -6.59375 1.671875 -6.4375 1.640625 -6.28125 L 1.0625 -3.8125 C 1.050781 -3.726562 1.085938 -3.664062 1.171875 -3.625 C 1.253906 -3.59375 1.328125 -3.609375 1.390625 -3.671875 C 3.222656 -5.410156 4.769531 -6.238281 6.03125 -6.15625 C 6.550781 -6.113281 6.992188 -5.894531 7.359375 -5.5 C 7.640625 -5.207031 7.890625 -4.882812 8.109375 -4.53125 C 8.671875 -3.507812 9.460938 -2.726562 10.484375 -2.1875 C 11.273438 -1.851562 12.078125 -1.71875 12.890625 -1.78125 C 13.703125 -1.851562 14.488281 -2.035156 15.25 -2.328125 C 16.007812 -2.628906 16.71875 -2.988281 17.375 -3.40625 C 18.039062 -3.832031 18.625 -4.25 19.125 -4.65625 C 19.632812 -5.070312 20.03125 -5.421875 20.3125 -5.703125 C 20.59375 -5.984375 20.738281 -6.132812 20.75 -6.15625 C 20.863281 -6.28125 21.015625 -6.34375 21.203125 -6.34375 C 21.378906 -6.34375 21.535156 -6.285156 21.671875 -6.171875 Z M 21.671875 -6.171875 "/></g></g></g><g fill="#967969" fill-opacity="1"><g transform="translate(231.777045, 225.491762)"><g><path d="M 23.484375 -5.671875 C 23.597656 -5.546875 23.65625 -5.394531 23.65625 -5.21875 C 23.65625 -5.039062 23.585938 -4.890625 23.453125 -4.765625 C 22.484375 -3.804688 21.410156 -2.988281 20.234375 -2.3125 C 19.054688 -1.632812 17.875 -1.101562 16.6875 -0.71875 C 15.507812 -0.34375 14.394531 -0.109375 13.34375 -0.015625 C 12.300781 0.078125 11.414062 0.0078125 10.6875 -0.21875 C 9.789062 -0.53125 9.015625 -1.019531 8.359375 -1.6875 C 7.710938 -2.363281 7.25 -3.148438 6.96875 -4.046875 C 6.914062 -4.191406 6.804688 -4.273438 6.640625 -4.296875 C 6.492188 -4.304688 6.378906 -4.242188 6.296875 -4.109375 C 4.316406 -1.304688 2.671875 0.09375 1.359375 0.09375 C 1.273438 0.09375 1.191406 0.0859375 1.109375 0.078125 C 0.710938 0.0234375 0.363281 -0.117188 0.0625 -0.359375 C -0.238281 -0.597656 -0.457031 -0.910156 -0.59375 -1.296875 C -0.789062 -1.804688 -0.851562 -2.382812 -0.78125 -3.03125 C -0.707031 -3.675781 -0.554688 -4.285156 -0.328125 -4.859375 C -0.109375 -5.441406 0.128906 -5.890625 0.390625 -6.203125 C 1.117188 -7.046875 1.78125 -7.539062 2.375 -7.6875 C 2.96875 -7.832031 3.46875 -7.847656 3.875 -7.734375 C 4.8125 -7.441406 5.410156 -6.816406 5.671875 -5.859375 C 5.691406 -5.691406 5.644531 -5.53125 5.53125 -5.375 C 5.425781 -5.226562 5.285156 -5.148438 5.109375 -5.140625 C 4.941406 -5.097656 4.785156 -5.128906 4.640625 -5.234375 C 4.503906 -5.347656 4.421875 -5.488281 4.390625 -5.65625 C 4.203125 -6.082031 3.878906 -6.363281 3.421875 -6.5 C 3.054688 -6.582031 2.691406 -6.484375 2.328125 -6.203125 C 1.960938 -5.929688 1.648438 -5.648438 1.390625 -5.359375 C 0.640625 -4.242188 0.382812 -3.035156 0.625 -1.734375 C 0.71875 -1.398438 0.941406 -1.226562 1.296875 -1.21875 C 1.609375 -1.164062 2.128906 -1.441406 2.859375 -2.046875 C 3.597656 -2.660156 4.515625 -3.78125 5.609375 -5.40625 C 5.773438 -5.65625 5.9375 -5.910156 6.09375 -6.171875 C 6.28125 -6.472656 6.359375 -6.796875 6.328125 -7.140625 C 6.253906 -8.210938 6.269531 -9.285156 6.375 -10.359375 C 6.488281 -11.640625 6.707031 -12.921875 7.03125 -14.203125 C 7.363281 -15.484375 7.78125 -16.660156 8.28125 -17.734375 C 8.789062 -18.804688 9.351562 -19.679688 9.96875 -20.359375 C 10.59375 -21.035156 11.253906 -21.425781 11.953125 -21.53125 C 12.453125 -21.601562 12.832031 -21.425781 13.09375 -21 C 13.320312 -20.65625 13.390625 -20.101562 13.296875 -19.34375 C 13.210938 -18.59375 13.003906 -17.71875 12.671875 -16.71875 C 12.335938 -15.71875 11.925781 -14.648438 11.4375 -13.515625 C 10.957031 -12.390625 10.421875 -11.253906 9.828125 -10.109375 C 9.242188 -8.972656 8.65625 -7.898438 8.0625 -6.890625 C 7.84375 -6.523438 7.773438 -6.140625 7.859375 -5.734375 C 8.046875 -4.785156 8.382812 -3.914062 8.875 -3.125 C 9.375 -2.332031 10.109375 -1.78125 11.078125 -1.46875 C 11.640625 -1.300781 12.375 -1.25 13.28125 -1.3125 C 14.195312 -1.375 15.191406 -1.578125 16.265625 -1.921875 C 17.335938 -2.273438 18.421875 -2.757812 19.515625 -3.375 C 20.609375 -4 21.625 -4.773438 22.5625 -5.703125 C 22.675781 -5.816406 22.828125 -5.875 23.015625 -5.875 C 23.191406 -5.875 23.347656 -5.804688 23.484375 -5.671875 Z M 7.65625 -10.234375 C 7.644531 -10.085938 7.640625 -9.941406 7.640625 -9.796875 C 7.648438 -9.660156 7.679688 -9.578125 7.734375 -9.546875 C 7.796875 -9.523438 7.890625 -9.625 8.015625 -9.84375 C 9.253906 -12.0625 10.210938 -13.992188 10.890625 -15.640625 C 11.566406 -17.296875 11.953125 -18.597656 12.046875 -19.546875 C 12.066406 -19.722656 12.003906 -19.851562 11.859375 -19.9375 C 11.703125 -20.019531 11.5625 -20.007812 11.4375 -19.90625 C 10.914062 -19.53125 10.390625 -18.867188 9.859375 -17.921875 C 9.335938 -16.984375 8.875 -15.847656 8.46875 -14.515625 C 8.0625 -13.179688 7.789062 -11.753906 7.65625 -10.234375 Z M 7.65625 -10.234375 "/></g></g></g><g fill="#967969" fill-opacity="1"><g transform="translate(254.331598, 225.491762)"><g/></g></g><g fill="#967969" fill-opacity="1"><g transform="translate(263.551701, 225.491762)"><g><path d="M 13.265625 0.9375 C 12.929688 1.070312 12.59375 1.140625 12.25 1.140625 C 11.625 1.117188 11.050781 0.921875 10.53125 0.546875 C 10.175781 0.328125 9.898438 0.0351562 9.703125 -0.328125 C 9.515625 -0.691406 9.4375 -1.078125 9.46875 -1.484375 C 9.519531 -2.066406 9.773438 -2.664062 10.234375 -3.28125 C 10.703125 -3.90625 11.304688 -4.539062 12.046875 -5.1875 C 12.796875 -5.832031 13.617188 -6.457031 14.515625 -7.0625 C 15.421875 -7.675781 16.316406 -8.253906 17.203125 -8.796875 C 17.421875 -8.929688 17.5625 -9.113281 17.625 -9.34375 L 17.953125 -10.421875 C 18.015625 -10.648438 17.957031 -10.835938 17.78125 -10.984375 C 17.582031 -11.128906 17.382812 -11.144531 17.1875 -11.03125 C 16.519531 -10.625 15.753906 -10.203125 14.890625 -9.765625 C 14.035156 -9.335938 13.132812 -8.945312 12.1875 -8.59375 C 11.238281 -8.238281 10.265625 -7.96875 9.265625 -7.78125 C 8.273438 -7.601562 7.304688 -7.5625 6.359375 -7.65625 C 5.410156 -7.757812 4.519531 -8.039062 3.6875 -8.5 C 2.78125 -9.019531 2.117188 -9.765625 1.703125 -10.734375 C 1.296875 -11.710938 1.160156 -12.863281 1.296875 -14.1875 C 1.410156 -15.3125 1.707031 -16.484375 2.1875 -17.703125 C 2.664062 -18.929688 3.300781 -20.148438 4.09375 -21.359375 C 4.882812 -22.578125 5.8125 -23.726562 6.875 -24.8125 C 7.945312 -25.894531 9.125 -26.859375 10.40625 -27.703125 C 11.6875 -28.546875 13.046875 -29.207031 14.484375 -29.6875 C 16.265625 -30.257812 17.800781 -30.347656 19.09375 -29.953125 C 20.382812 -29.554688 21.269531 -28.722656 21.75 -27.453125 C 22.0625 -26.617188 22.175781 -25.703125 22.09375 -24.703125 C 22.007812 -23.703125 21.742188 -22.671875 21.296875 -21.609375 C 20.847656 -20.546875 20.234375 -19.503906 19.453125 -18.484375 C 18.671875 -17.472656 17.726562 -16.523438 16.625 -15.640625 C 15.53125 -14.765625 14.28125 -14.023438 12.875 -13.421875 C 12.707031 -13.347656 12.539062 -13.34375 12.375 -13.40625 C 12.207031 -13.476562 12.09375 -13.597656 12.03125 -13.765625 C 11.945312 -13.929688 11.9375 -14.09375 12 -14.25 C 12.0625 -14.414062 12.175781 -14.535156 12.34375 -14.609375 C 14.03125 -15.347656 15.460938 -16.253906 16.640625 -17.328125 C 17.816406 -18.398438 18.742188 -19.535156 19.421875 -20.734375 C 20.097656 -21.941406 20.523438 -23.09375 20.703125 -24.1875 C 20.890625 -25.289062 20.832031 -26.222656 20.53125 -26.984375 C 20.164062 -27.921875 19.5 -28.515625 18.53125 -28.765625 C 17.5625 -29.015625 16.351562 -28.90625 14.90625 -28.4375 C 13.550781 -27.988281 12.273438 -27.375 11.078125 -26.59375 C 9.890625 -25.8125 8.800781 -24.921875 7.8125 -23.921875 C 6.820312 -22.921875 5.953125 -21.851562 5.203125 -20.71875 C 4.460938 -19.582031 3.863281 -18.445312 3.40625 -17.3125 C 2.957031 -16.1875 2.679688 -15.101562 2.578125 -14.0625 C 2.523438 -13.5625 2.523438 -13.03125 2.578125 -12.46875 C 2.640625 -11.90625 2.800781 -11.367188 3.0625 -10.859375 C 3.332031 -10.359375 3.757812 -9.953125 4.34375 -9.640625 C 5.070312 -9.210938 5.875 -8.972656 6.75 -8.921875 C 7.632812 -8.878906 8.539062 -8.957031 9.46875 -9.15625 C 10.394531 -9.351562 11.304688 -9.628906 12.203125 -9.984375 C 13.109375 -10.347656 13.960938 -10.738281 14.765625 -11.15625 C 15.566406 -11.582031 16.269531 -11.984375 16.875 -12.359375 C 17.488281 -12.742188 17.972656 -13.066406 18.328125 -13.328125 C 18.691406 -13.585938 18.878906 -13.722656 18.890625 -13.734375 C 19.128906 -13.921875 19.378906 -13.929688 19.640625 -13.765625 C 19.890625 -13.597656 19.976562 -13.363281 19.90625 -13.0625 C 19.894531 -12.945312 19.851562 -12.738281 19.78125 -12.4375 C 19.71875 -12.144531 19.640625 -11.785156 19.546875 -11.359375 C 19.472656 -11.085938 19.546875 -10.863281 19.765625 -10.6875 C 19.972656 -10.519531 20.195312 -10.503906 20.4375 -10.640625 C 21.09375 -10.984375 21.648438 -11.269531 22.109375 -11.5 C 22.578125 -11.738281 22.894531 -11.898438 23.0625 -11.984375 C 23.226562 -12.054688 23.394531 -12.0625 23.5625 -12 C 23.726562 -11.9375 23.847656 -11.828125 23.921875 -11.671875 C 24.003906 -11.515625 24.015625 -11.347656 23.953125 -11.171875 C 23.890625 -10.992188 23.78125 -10.875 23.625 -10.8125 C 22.988281 -10.5 22.304688 -10.148438 21.578125 -9.765625 C 20.859375 -9.390625 20.140625 -8.992188 19.421875 -8.578125 C 18.898438 -8.285156 18.550781 -7.859375 18.375 -7.296875 C 18.070312 -6.410156 17.742188 -5.53125 17.390625 -4.65625 C 17.035156 -3.78125 16.644531 -2.960938 16.21875 -2.203125 C 15.789062 -1.441406 15.328125 -0.785156 14.828125 -0.234375 C 14.328125 0.316406 13.804688 0.707031 13.265625 0.9375 Z M 16.234375 -5.3125 L 16.234375 -5.28125 C 16.359375 -5.582031 16.296875 -5.820312 16.046875 -6 C 15.816406 -6.195312 15.566406 -6.207031 15.296875 -6.03125 C 14.472656 -5.46875 13.722656 -4.90625 13.046875 -4.34375 C 12.367188 -3.78125 11.832031 -3.242188 11.4375 -2.734375 C 11.039062 -2.234375 10.820312 -1.785156 10.78125 -1.390625 C 10.769531 -1.273438 10.785156 -1.140625 10.828125 -0.984375 C 10.878906 -0.835938 11.03125 -0.679688 11.28125 -0.515625 C 11.726562 -0.140625 12.222656 -0.0546875 12.765625 -0.265625 C 13.410156 -0.535156 14.023438 -1.132812 14.609375 -2.0625 C 15.203125 -3 15.742188 -4.082031 16.234375 -5.3125 Z M 16.234375 -5.3125 "/></g></g></g><g fill="#967969" fill-opacity="1"><g transform="translate(285.040477, 225.491762)"><g><path d="M 17.0625 -6.375 C 17.195312 -6.238281 17.265625 -6.082031 17.265625 -5.90625 C 17.265625 -5.71875 17.195312 -5.5625 17.0625 -5.4375 C 17.007812 -5.382812 16.765625 -5.160156 16.328125 -4.765625 C 15.890625 -4.367188 15.316406 -3.894531 14.609375 -3.34375 C 13.898438 -2.800781 13.085938 -2.253906 12.171875 -1.703125 C 11.265625 -1.160156 10.3125 -0.707031 9.3125 -0.34375 C 8.3125 0.0195312 7.304688 0.203125 6.296875 0.203125 C 5.679688 0.203125 5.085938 0.117188 4.515625 -0.046875 C 3.441406 -0.359375 2.546875 -1.003906 1.828125 -1.984375 C 1.109375 -2.972656 0.582031 -4.242188 0.25 -5.796875 C 0.21875 -5.878906 0.203125 -5.960938 0.203125 -6.046875 C 0.046875 -6.859375 -0.0507812 -7.675781 -0.09375 -8.5 C -0.144531 -9.570312 -0.125 -10.695312 -0.03125 -11.875 C 0.0507812 -13.050781 0.203125 -14.203125 0.421875 -15.328125 C 0.640625 -16.460938 0.914062 -17.515625 1.25 -18.484375 C 1.59375 -19.453125 1.972656 -20.265625 2.390625 -20.921875 C 2.816406 -21.585938 3.285156 -22.035156 3.796875 -22.265625 C 4.140625 -22.410156 4.5 -22.429688 4.875 -22.328125 C 5.257812 -22.234375 5.566406 -22.039062 5.796875 -21.75 C 6.160156 -21.363281 6.351562 -20.8125 6.375 -20.09375 C 6.40625 -19.375 6.320312 -18.550781 6.125 -17.625 C 5.925781 -16.695312 5.648438 -15.722656 5.296875 -14.703125 C 4.953125 -13.679688 4.570312 -12.671875 4.15625 -11.671875 C 3.75 -10.679688 3.347656 -9.753906 2.953125 -8.890625 C 2.554688 -8.035156 2.21875 -7.320312 1.9375 -6.75 C 1.664062 -6.195312 1.613281 -5.640625 1.78125 -5.078125 C 2.03125 -4.222656 2.398438 -3.441406 2.890625 -2.734375 C 3.378906 -2.035156 4.046875 -1.554688 4.890625 -1.296875 C 5.660156 -1.054688 6.472656 -1.007812 7.328125 -1.15625 C 8.179688 -1.3125 9.023438 -1.582031 9.859375 -1.96875 C 10.691406 -2.351562 11.484375 -2.789062 12.234375 -3.28125 C 12.984375 -3.769531 13.644531 -4.242188 14.21875 -4.703125 C 14.800781 -5.171875 15.265625 -5.5625 15.609375 -5.875 C 15.953125 -6.1875 16.128906 -6.351562 16.140625 -6.375 C 16.273438 -6.488281 16.429688 -6.546875 16.609375 -6.546875 C 16.773438 -6.546875 16.925781 -6.488281 17.0625 -6.375 Z M 1.296875 -8.875 C 1.304688 -8.757812 1.359375 -8.679688 1.453125 -8.640625 C 1.554688 -8.597656 1.644531 -8.628906 1.71875 -8.734375 C 1.925781 -9.078125 2.171875 -9.585938 2.453125 -10.265625 C 2.734375 -10.941406 3.019531 -11.707031 3.3125 -12.5625 C 3.613281 -13.425781 3.890625 -14.304688 4.140625 -15.203125 C 4.390625 -16.097656 4.597656 -16.941406 4.765625 -17.734375 C 4.929688 -18.523438 5.03125 -19.203125 5.0625 -19.765625 C 5.09375 -20.328125 5.023438 -20.691406 4.859375 -20.859375 C 4.710938 -21.023438 4.570312 -21.109375 4.4375 -21.109375 C 4.382812 -21.109375 4.335938 -21.097656 4.296875 -21.078125 C 4.046875 -20.960938 3.757812 -20.609375 3.4375 -20.015625 C 3.113281 -19.421875 2.796875 -18.664062 2.484375 -17.75 C 2.171875 -16.84375 1.894531 -15.859375 1.65625 -14.796875 C 1.414062 -13.742188 1.253906 -12.695312 1.171875 -11.65625 C 1.085938 -10.625 1.128906 -9.695312 1.296875 -8.875 Z M 1.296875 -8.875 "/></g></g></g><g fill="#967969" fill-opacity="1"><g transform="translate(301.373942, 225.491762)"><g><path d="M 18.109375 -7.046875 C 18.234375 -6.910156 18.296875 -6.753906 18.296875 -6.578125 C 18.296875 -6.390625 18.234375 -6.238281 18.109375 -6.125 C 17.046875 -5.0625 15.914062 -4.21875 14.71875 -3.59375 C 13.53125 -2.976562 12.34375 -2.539062 11.15625 -2.28125 C 9.96875 -2.019531 8.835938 -1.898438 7.765625 -1.921875 C 6.703125 -1.941406 5.773438 -2.070312 4.984375 -2.3125 C 4.867188 -2.34375 4.78125 -2.300781 4.71875 -2.1875 C 4.5 -1.6875 4.171875 -1.285156 3.734375 -0.984375 C 3.296875 -0.691406 2.800781 -0.535156 2.25 -0.515625 C 1.707031 -0.515625 1.207031 -0.648438 0.75 -0.921875 C 0.113281 -1.210938 -0.332031 -1.671875 -0.59375 -2.296875 C -0.851562 -2.929688 -0.878906 -3.578125 -0.671875 -4.234375 C -0.523438 -4.816406 -0.269531 -5.367188 0.09375 -5.890625 C 0.457031 -6.410156 0.867188 -6.832031 1.328125 -7.15625 C 1.796875 -7.488281 2.238281 -7.65625 2.65625 -7.65625 L 2.671875 -7.65625 C 2.859375 -7.65625 3.015625 -7.585938 3.140625 -7.453125 C 3.265625 -7.328125 3.328125 -7.175781 3.328125 -7 C 3.328125 -6.832031 3.257812 -6.6875 3.125 -6.5625 C 2.988281 -6.4375 2.832031 -6.375 2.65625 -6.375 C 2.507812 -6.375 2.289062 -6.253906 2 -6.015625 C 1.707031 -5.785156 1.425781 -5.484375 1.15625 -5.109375 C 0.882812 -4.742188 0.691406 -4.347656 0.578125 -3.921875 C 0.441406 -3.554688 0.445312 -3.195312 0.59375 -2.84375 C 0.738281 -2.488281 0.988281 -2.234375 1.34375 -2.078125 C 1.632812 -1.847656 1.960938 -1.753906 2.328125 -1.796875 C 2.691406 -1.835938 2.988281 -2 3.21875 -2.28125 C 3.300781 -2.382812 3.390625 -2.515625 3.484375 -2.671875 C 3.585938 -2.828125 3.566406 -2.953125 3.421875 -3.046875 C 2.960938 -3.347656 2.671875 -3.769531 2.546875 -4.3125 C 2.429688 -4.863281 2.523438 -5.367188 2.828125 -5.828125 C 3.222656 -6.503906 3.582031 -6.882812 3.90625 -6.96875 C 4.238281 -7.050781 4.523438 -7.023438 4.765625 -6.890625 C 5.085938 -6.710938 5.289062 -6.351562 5.375 -5.8125 C 5.457031 -5.28125 5.453125 -4.707031 5.359375 -4.09375 C 5.328125 -3.945312 5.359375 -3.800781 5.453125 -3.65625 C 5.554688 -3.519531 5.679688 -3.429688 5.828125 -3.390625 C 7.210938 -3.160156 8.585938 -3.148438 9.953125 -3.359375 C 11.316406 -3.578125 12.613281 -3.992188 13.84375 -4.609375 C 15.082031 -5.234375 16.195312 -6.046875 17.1875 -7.046875 C 17.300781 -7.171875 17.445312 -7.234375 17.625 -7.234375 C 17.8125 -7.234375 17.972656 -7.171875 18.109375 -7.046875 Z M 4.0625 -4.234375 C 4.132812 -4.628906 4.148438 -5.035156 4.109375 -5.453125 C 4.097656 -5.398438 4.078125 -5.351562 4.046875 -5.3125 C 4.015625 -5.269531 3.976562 -5.226562 3.9375 -5.1875 C 3.84375 -5.03125 3.800781 -4.859375 3.8125 -4.671875 C 3.832031 -4.492188 3.914062 -4.347656 4.0625 -4.234375 Z M 4.0625 -4.234375 "/></g></g></g><g fill="#967969" fill-opacity="1"><g transform="translate(318.500527, 225.491762)"><g><path d="M 24.46875 -6.578125 C 24.582031 -6.441406 24.640625 -6.28125 24.640625 -6.09375 C 24.628906 -5.914062 24.554688 -5.769531 24.421875 -5.65625 C 23.210938 -4.625 21.890625 -3.816406 20.453125 -3.234375 C 19.015625 -2.648438 17.519531 -2.296875 15.96875 -2.171875 C 14.414062 -2.046875 12.863281 -2.164062 11.3125 -2.53125 C 10.8125 -2.664062 10.3125 -2.832031 9.8125 -3.03125 C 9.570312 -3.15625 9.375 -3.113281 9.21875 -2.90625 C 9.101562 -2.769531 9.003906 -2.640625 8.921875 -2.515625 C 8.835938 -2.390625 8.765625 -2.285156 8.703125 -2.203125 C 8.117188 -1.523438 7.59375 -1.050781 7.125 -0.78125 C 6.65625 -0.519531 6.242188 -0.390625 5.890625 -0.390625 C 5.535156 -0.390625 5.234375 -0.457031 4.984375 -0.59375 C 4.816406 -0.675781 4.675781 -0.789062 4.5625 -0.9375 C 4.363281 -1.125 4.128906 -1.21875 3.859375 -1.21875 C 3.585938 -1.226562 3.351562 -1.144531 3.15625 -0.96875 C 2.914062 -0.769531 2.65625 -0.613281 2.375 -0.5 C 2.132812 -0.382812 1.878906 -0.328125 1.609375 -0.328125 C 1.316406 -0.328125 1.035156 -0.390625 0.765625 -0.515625 C 0.234375 -0.765625 -0.117188 -1.179688 -0.296875 -1.765625 C -0.460938 -2.242188 -0.515625 -2.773438 -0.453125 -3.359375 C -0.398438 -3.941406 -0.285156 -4.507812 -0.109375 -5.0625 C 0.0664062 -5.625 0.234375 -6.101562 0.390625 -6.5 C 0.554688 -6.894531 0.664062 -7.132812 0.71875 -7.21875 C 0.800781 -7.382812 0.925781 -7.492188 1.09375 -7.546875 C 1.257812 -7.609375 1.425781 -7.597656 1.59375 -7.515625 C 1.75 -7.453125 1.859375 -7.332031 1.921875 -7.15625 C 1.984375 -6.976562 1.972656 -6.804688 1.890625 -6.640625 C 1.785156 -6.441406 1.660156 -6.148438 1.515625 -5.765625 C 1.367188 -5.390625 1.234375 -4.984375 1.109375 -4.546875 C 0.984375 -4.109375 0.894531 -3.675781 0.84375 -3.25 C 0.789062 -2.832031 0.816406 -2.476562 0.921875 -2.1875 C 0.984375 -1.945312 1.125 -1.78125 1.34375 -1.6875 C 1.519531 -1.601562 1.703125 -1.601562 1.890625 -1.6875 C 2.210938 -1.832031 2.539062 -2.128906 2.875 -2.578125 C 3.21875 -3.035156 3.53125 -3.546875 3.8125 -4.109375 C 4.09375 -4.671875 4.316406 -5.171875 4.484375 -5.609375 C 4.554688 -5.773438 4.671875 -5.894531 4.828125 -5.96875 C 4.984375 -6.039062 5.144531 -6.050781 5.3125 -6 C 5.488281 -5.9375 5.613281 -5.820312 5.6875 -5.65625 C 5.757812 -5.488281 5.765625 -5.320312 5.703125 -5.15625 C 5.566406 -4.757812 5.457031 -4.3125 5.375 -3.8125 C 5.289062 -3.320312 5.257812 -2.878906 5.28125 -2.484375 C 5.300781 -2.097656 5.410156 -1.859375 5.609375 -1.765625 C 5.816406 -1.628906 6.128906 -1.703125 6.546875 -1.984375 C 7.046875 -2.328125 7.46875 -2.734375 7.8125 -3.203125 C 8.144531 -3.597656 8.171875 -4 7.890625 -4.40625 C 7.722656 -4.644531 7.613281 -4.910156 7.5625 -5.203125 C 7.46875 -6.128906 8.160156 -6.957031 9.640625 -7.6875 C 9.835938 -7.820312 10.050781 -7.867188 10.28125 -7.828125 C 10.519531 -7.785156 10.707031 -7.679688 10.84375 -7.515625 C 11.019531 -7.285156 11.070312 -6.972656 11 -6.578125 C 10.9375 -6.191406 10.816406 -5.773438 10.640625 -5.328125 C 10.503906 -5.035156 10.507812 -4.738281 10.65625 -4.4375 C 10.789062 -4.15625 11.015625 -3.972656 11.328125 -3.890625 C 11.429688 -3.859375 11.53125 -3.832031 11.625 -3.8125 C 13.019531 -3.46875 14.421875 -3.347656 15.828125 -3.453125 C 17.242188 -3.566406 18.609375 -3.882812 19.921875 -4.40625 C 21.234375 -4.9375 22.445312 -5.664062 23.5625 -6.59375 C 23.6875 -6.726562 23.835938 -6.789062 24.015625 -6.78125 C 24.203125 -6.769531 24.351562 -6.703125 24.46875 -6.578125 Z M 9.046875 -5.03125 C 9.234375 -5.394531 9.410156 -5.769531 9.578125 -6.15625 C 9.296875 -5.96875 9.101562 -5.804688 9 -5.671875 C 8.90625 -5.546875 8.863281 -5.441406 8.875 -5.359375 C 8.894531 -5.222656 8.953125 -5.113281 9.046875 -5.03125 Z M 9.046875 -5.03125 "/></g></g></g></svg>